# xmcd
#
# Track frame offsets: 
#        150
#        65115
#        129986
#        198034
#
# Disc length: 3545 seconds
#
# Revision: 2
# Processed by: cddbd v1.5.2PL0 Copyright (c) Steve Scherf et al.
# Submitted via: ExactAudioCopy v1.0b3
#
DISCID=320dd704
DTITLE=Makiko Hirohashi - 快眠 [美肌]
DYEAR=2006
DGENRE=Easy Listening
TTITLE0=Sweet Aroma 
TTITLE1=Dream of Tomorrow  
TTITLE2=Sunny Day 
TTITLE3=Floating 
EXTD=
EXTT0=
EXTT1=
EXTT2=
EXTT3=
PLAYORDER=
